<svg width="1200" height="630" viewBox="0 0 1200 630" fill="none" xmlns="http://www.w3.org/2000/svg">
  <defs>
    <linearGradient id="bg" x1="96" y1="64" x2="1080" y2="566" gradientUnits="userSpaceOnUse">
      <stop offset="0" stop-color="#0A1220"/>
      <stop offset="0.55" stop-color="#101C30"/>
      <stop offset="1" stop-color="#141F33"/>
    </linearGradient>
    <radialGradient id="glowCool" cx="0" cy="0" r="1" gradientUnits="userSpaceOnUse" gradientTransform="translate(1028 112) rotate(131.009) scale(295.211 451.409)">
      <stop stop-color="#4A90E2" stop-opacity="0.32"/>
      <stop offset="1" stop-color="#4A90E2" stop-opacity="0"/>
    </radialGradient>
    <radialGradient id="glowWarm" cx="0" cy="0" r="1" gradientUnits="userSpaceOnUse" gradientTransform="translate(210 84) rotate(64.3883) scale(381.359 515.981)">
      <stop stop-color="#DDCDA5" stop-opacity="0.18"/>
      <stop offset="1" stop-color="#DDCDA5" stop-opacity="0"/>
    </radialGradient>
    <linearGradient id="gold" x1="266" y1="174" x2="508" y2="432" gradientUnits="userSpaceOnUse">
      <stop offset="0" stop-color="#E5D8B7"/>
      <stop offset="0.52" stop-color="#B9B7AE"/>
      <stop offset="1" stop-color="#8B7B57"/>
    </linearGradient>
    <linearGradient id="goldIcon" x1="0%" y1="0%" x2="100%" y2="100%">
      <stop offset="0%" stop-color="#DDCDA5" />
      <stop offset="60%" stop-color="#B8B8B4" />
      <stop offset="100%" stop-color="#8B7B57" />
    </linearGradient>
    <linearGradient id="panelStroke" x1="180" y1="126" x2="502" y2="450" gradientUnits="userSpaceOnUse">
      <stop stop-color="#D9C8A1" stop-opacity="0.36"/>
      <stop offset="1" stop-color="#7E8DAA" stop-opacity="0.2"/>
    </linearGradient>
    <filter id="shadow" x="176" y="133" width="276" height="323" filterUnits="userSpaceOnUse" color-interpolation-filters="sRGB">
      <feDropShadow dx="0" dy="18" stdDeviation="18" flood-color="#04070E" flood-opacity="0.42"/>
    </filter>
  </defs>
  <rect width="1200" height="630" rx="32" fill="url(#bg)"/>
  <rect width="1200" height="630" rx="32" fill="url(#glowCool)"/>
  <rect width="1200" height="630" rx="32" fill="url(#glowWarm)"/>
  <g opacity="0.18">
    <path d="M815 72C944 120 1057 230 1116 383" stroke="#C9D4E8" stroke-width="1.5"/>
    <path d="M784 116C910 162 1010 258 1060 396" stroke="#C9D4E8" stroke-width="1.5"/>
    <path d="M755 160C873 202 967 286 1015 404" stroke="#C9D4E8" stroke-width="1.5"/>
  </g>
  <g opacity="0.24">
    <path d="M107 495C213 430 361 411 488 444" stroke="#DDCDA5" stroke-width="1.5"/>
    <path d="M125 534C253 456 367 441 507 473" stroke="#DDCDA5" stroke-width="1.5"/>
  </g>
  <rect x="128" y="116" width="380" height="398" rx="42" fill="#0C1628" fill-opacity="0.62"/>
  <rect x="128.75" y="116.75" width="378.5" height="396.5" rx="41.25" stroke="url(#panelStroke)" stroke-width="1.5"/>
  <g filter="url(#shadow)">
    <g transform="translate(150 120) scale(5.2)">
      <path d="M14 37.2L21 39.8L34.7 45.1L34.8 45.2L34.8 45.4L27.2 48.5L26.4 48.9L25.7 49.1L25.5 49.1L23.8 48.2L14.1 43.7L14 43.6Z" fill="url(#goldIcon)" />
      <path d="M28.4 41.1L30.2 40.4L49.6 33.2L49.9 33.2L50 33.3L50 38.6L49.6 38.9L44.3 41.2L39.7 43.3L36.8 44.5L36.4 44.5L32.7 43.1L28.4 41.3Z" fill="url(#goldIcon)" />
      <path d="M27.3 49.9L27.7 49.7L29.6 48.9L48.8 40.4L49.6 40.1L49.9 40.1L50 40.2L49.9 42.9L49.7 43.1L32.7 52.4L32.5 52.5L31.9 52.3L31.3 52L27.3 50.1Z" fill="url(#goldIcon)" />
      <g transform="translate(-2.9 0)">
        <path d="M23.7 35.6V26.1L31.1 20.6V40.2" fill="none" stroke="url(#goldIcon)" stroke-width="2.6" stroke-linecap="square" stroke-linejoin="miter" />
        <path d="M31.8 41.2V16.3L39.2 10.9V34.8" fill="none" stroke="url(#goldIcon)" stroke-width="2.6" stroke-linecap="square" stroke-linejoin="miter" />
        <path d="M41.1 35.5V25.8L45.2 22.8V32.7" fill="none" stroke="url(#goldIcon)" stroke-width="2.6" stroke-linecap="square" stroke-linejoin="miter" />
      </g>
    </g>
  </g>
  <circle cx="318" cy="315" r="156" stroke="#ECE4D2" stroke-opacity="0.08" stroke-width="1.5"/>
  <text x="568" y="252" fill="#E9E3D6" font-family="Georgia, 'Times New Roman', serif" font-size="72" font-weight="700" letter-spacing="1.4">Urban Stone</text>
  <text x="572" y="310" fill="#B9B7AE" font-family="Arial, Helvetica, sans-serif" font-size="28" font-weight="700" letter-spacing="10.5">COLLECTIVE</text>
  <text x="568" y="392" fill="#C8D3E7" font-family="Arial, Helvetica, sans-serif" font-size="24" font-weight="600" letter-spacing="0.2">Curated slabs and precision fabrication.</text>
  <text x="568" y="438" fill="#C8D3E7" font-family="Arial, Helvetica, sans-serif" font-size="24" font-weight="600" letter-spacing="0.2">Fast-turn installs for kitchens and baths.</text>
  <text x="568" y="490" fill="#DCCDA7" font-family="Arial, Helvetica, sans-serif" font-size="20" font-weight="700" letter-spacing="2.8">GREATER CINCINNATI  •  NORTHERN KENTUCKY</text>
</svg>
